<svg width="38" height="33" viewBox="0 0 38 33" fill="none" xmlns="http://www.w3.org/2000/svg">
<path d="M0.769226 10C0.769226 4.47715 5.24638 0 10.7692 0L28 0C33.5228 0 38 4.47715 38 10V23C38 28.5228 33.5228 33 28 33H10.7692C5.24639 33 0.769226 28.5228 0.769226 23L0.769226 10Z" fill="#334155"/>
<path d="M5.84615 5.92309C5.84615 5.69867 5.93529 5.48345 6.09398 5.32477C6.25267 5.16608 6.46789 5.07693 6.69231 5.07693H9.23079C9.41954 5.07699 9.60285 5.14014 9.75157 5.25636C9.9003 5.37258 10.0059 5.53518 10.0516 5.71832L10.737 8.46155H30.3848C30.5134 8.46159 30.6402 8.4909 30.7557 8.54727C30.8712 8.60364 30.9724 8.68558 31.0515 8.78688C31.1306 8.88817 31.1856 9.00616 31.2123 9.13189C31.239 9.25761 31.2367 9.38776 31.2056 9.51247L28.6671 19.6663C28.6214 19.8495 28.5159 20.0121 28.3671 20.1283C28.2184 20.2445 28.0351 20.3077 27.8463 20.3077H12.6154C12.4267 20.3077 12.2434 20.2445 12.0947 20.1283C11.9459 20.0121 11.8403 19.8495 11.7947 19.6663L8.57079 6.76924H6.69231C6.46789 6.76924 6.25267 6.68009 6.09398 6.52141C5.93529 6.36272 5.84615 6.1475 5.84615 5.92309ZM11.16 10.1539L13.2754 18.6154H27.1863L29.3017 10.1539H11.16ZM14.3078 23.6923C13.8589 23.6923 13.4285 23.8706 13.1111 24.188C12.7937 24.5054 12.6154 24.9358 12.6154 25.3846C12.6154 25.8335 12.7937 26.2639 13.1111 26.5813C13.4285 26.8986 13.8589 27.0769 14.3078 27.0769C14.7566 27.0769 15.187 26.8986 15.5044 26.5813C15.8218 26.2639 16.0001 25.8335 16.0001 25.3846C16.0001 24.9358 15.8218 24.5054 15.5044 24.188C15.187 23.8706 14.7566 23.6923 14.3078 23.6923ZM10.9231 25.3846C10.9231 24.487 11.2797 23.6261 11.9145 22.9913C12.5492 22.3566 13.4101 22 14.3078 22C15.2054 22 16.0663 22.3566 16.7011 22.9913C17.3358 23.6261 17.6924 24.487 17.6924 25.3846C17.6924 26.2823 17.3358 27.1432 16.7011 27.7779C16.0663 28.4126 15.2054 28.7692 14.3078 28.7692C13.4101 28.7692 12.5492 28.4126 11.9145 27.7779C11.2797 27.1432 10.9231 26.2823 10.9231 25.3846ZM26.154 23.6923C25.7052 23.6923 25.2747 23.8706 24.9574 24.188C24.64 24.5054 24.4617 24.9358 24.4617 25.3846C24.4617 25.8335 24.64 26.2639 24.9574 26.5813C25.2747 26.8986 25.7052 27.0769 26.154 27.0769C26.6029 27.0769 27.0333 26.8986 27.3507 26.5813C27.668 26.2639 27.8463 25.8335 27.8463 25.3846C27.8463 24.9358 27.668 24.5054 27.3507 24.188C27.0333 23.8706 26.6029 23.6923 26.154 23.6923ZM22.7694 25.3846C22.7694 24.487 23.126 23.6261 23.7607 22.9913C24.3955 22.3566 25.2564 22 26.154 22C27.0517 22 27.9126 22.3566 28.5473 22.9913C29.1821 23.6261 29.5387 24.487 29.5387 25.3846C29.5387 26.2823 29.1821 27.1432 28.5473 27.7779C27.9126 28.4126 27.0517 28.7692 26.154 28.7692C25.2564 28.7692 24.3955 28.4126 23.7607 27.7779C23.126 27.1432 22.7694 26.2823 22.7694 25.3846Z" fill="white"/>
</svg>
